<svg width="1584" height="396" viewBox="0 0 1584 396" fill="none" xmlns="http://www.w3.org/2000/svg">
<rect width="1584" height="396" fill="#F5F5F5"/>
<g id="Awesome banner" clip-path="url(#clip0_0_1)">
<rect width="1584" height="396" fill="url(#paint0_linear_0_1)"/>
<ellipse id="Ellipse 2" cx="323" cy="64" rx="285" ry="288" fill="url(#paint1_linear_0_1)" fill-opacity="0.1"/>
<g id="copyright">
<path d="M75.95 334.52L72.30 334.52L72.30 311.16L77.20 311.16L83.70 330.04Q83.60 329.02 83.50 327.62Q83.41 326.23 83.33 324.79Q83.25 323.35 83.25 322.23L83.25 311.16L86.90 311.16L86.90 334.52L82 334.52L75.57 315.64Q75.63 316.57 75.73 317.88Q75.82 319.19 75.89 320.57Q75.95 321.94 75.95 323.10L75.95 334.52M98.80 334.84Q96.46 334.84 94.67 333.96Q92.88 333.08 91.89 331.53Q90.90 329.98 90.90 327.93Q90.90 325.78 92.13 324.18Q93.36 322.58 95.34 322.17L95.34 322.10Q93.65 321.75 92.61 320.38Q91.57 319 91.57 317.11Q91.57 315.26 92.48 313.85Q93.39 312.44 95.02 311.64Q96.66 310.84 98.80 310.84Q100.94 310.84 102.59 311.64Q104.24 312.44 105.15 313.85Q106.06 315.26 106.06 317.11Q106.06 319 105.01 320.38Q103.95 321.75 102.26 322.10L102.26 322.17Q104.24 322.58 105.47 324.18Q106.70 325.78 106.70 327.93Q106.70 329.98 105.71 331.53Q104.72 333.08 102.93 333.96Q101.14 334.84 98.80 334.84M98.80 320.73Q100.30 320.73 101.23 319.82Q102.16 318.90 102.16 317.46Q102.16 315.99 101.23 315.08Q100.30 314.17 98.80 314.17Q97.30 314.17 96.37 315.08Q95.44 315.99 95.44 317.46Q95.44 318.90 96.37 319.82Q97.30 320.73 98.80 320.73M98.80 331.45Q100.56 331.45 101.68 330.42Q102.80 329.40 102.80 327.74Q102.80 326.04 101.68 325Q100.56 323.96 98.80 323.96Q97.04 323.96 95.92 325Q94.80 326.04 94.80 327.74Q94.80 329.40 95.92 330.42Q97.04 331.45 98.80 331.45M114.35 334.52L110.70 334.52L110.70 311.16L115.60 311.16L122.10 330.04Q122 329.02 121.90 327.62Q121.81 326.23 121.73 324.79Q121.65 323.35 121.65 322.23L121.65 311.16L125.30 311.16L125.30 334.52L120.40 334.52L113.97 315.64Q114.03 316.57 114.13 317.88Q114.22 319.19 114.29 320.57Q114.35 321.94 114.35 323.10" fill="white" fill-opacity="0.9"/>
<path d="M161.48 325.24L151.24 325.24L151.24 322.68L161.48 322.68" fill="white" fill-opacity="0.9"/>
<path d="M195.02 334.84Q191.82 334.84 189.96 333.05Q188.11 331.26 188.11 328.12L188.11 317.56Q188.11 314.42 189.96 312.63Q191.82 310.84 195.02 310.84Q198.15 310.84 200.01 312.65Q201.87 314.46 201.87 317.56L198.99 317.56Q198.99 315.58 197.95 314.50Q196.91 313.43 195.02 313.43Q193.13 313.43 192.06 314.50Q190.99 315.58 190.99 317.56L190.99 328.12Q190.99 330.10 192.06 331.18Q193.13 332.25 195.02 332.25Q196.91 332.25 197.95 331.18Q198.99 330.10 198.99 328.12L201.87 328.12Q201.87 331.22 200.01 333.03Q198.15 334.84 195.02 334.84" fill="white" fill-opacity="0.9"/>
<path d="M213.96 334.84Q210.83 334.84 209 333.02Q207.18 331.19 207.18 327.80L207.18 317.88Q207.18 314.49 209 312.66Q210.83 310.84 213.96 310.84Q217.10 310.84 218.92 312.66Q220.75 314.49 220.75 317.85L220.75 327.80Q220.75 331.19 218.92 333.02Q217.10 334.84 213.96 334.84M213.96 332.25Q215.85 332.25 216.86 331.18Q217.87 330.10 217.87 328.12L217.87 317.56Q217.87 315.58 216.86 314.50Q215.85 313.43 213.96 313.43Q212.11 313.43 211.08 314.50Q210.06 315.58 210.06 317.56L210.06 328.12Q210.06 330.10 211.08 331.18Q212.11 332.25 213.96 332.25" fill="white" fill-opacity="0.9"/>
<path d="M228.65 334.52L225.87 334.52L225.87 311.16L230.12 311.16L233.10 321.27L236.20 311.16L240.46 311.16L240.46 334.52L237.67 334.52L237.67 323.48Q237.67 321.91 237.72 319.88Q237.77 317.85 237.87 315.77Q237.96 313.69 238.09 312.02L234.31 324.09L231.82 324.09L228.20 312.31Q228.46 314.68 228.55 317.50Q228.65 320.31 228.65 323.48" fill="white" fill-opacity="0.9"/>
<path d="M247.85 334.52L245.07 334.52L245.07 311.16L249.32 311.16L252.30 321.27L255.40 311.16L259.66 311.16L259.66 334.52L256.87 334.52L256.87 323.48Q256.87 321.91 256.92 319.88Q256.97 317.85 257.07 315.77Q257.16 313.69 257.29 312.02L253.51 324.09L251.02 324.09L247.40 312.31Q247.66 314.68 247.75 317.50Q247.85 320.31 247.85 323.48" fill="white" fill-opacity="0.9"/>
<path d="M271.56 334.84Q268.30 334.84 266.57 333.03Q264.84 331.22 264.84 328.12L264.84 311.16L267.72 311.16L267.72 328.12Q267.72 330.04 268.67 331.16Q269.61 332.28 271.56 332.28Q273.48 332.28 274.44 331.16Q275.40 330.04 275.40 328.12L275.40 311.16L278.28 311.16L278.28 328.12Q278.28 331.26 276.57 333.05Q274.86 334.84 271.56 334.84" fill="white" fill-opacity="0.9"/>
<path d="M286.83 334.52L284.04 334.52L284.04 311.16L287.88 311.16L295.02 331.16Q294.95 330.36 294.87 329.19Q294.79 328.02 294.75 326.73Q294.70 325.43 294.70 324.28L294.70 311.16L297.48 311.16L297.48 334.52L293.64 334.52L286.54 314.52Q286.60 315.29 286.67 316.46Q286.73 317.62 286.78 318.92Q286.83 320.22 286.83 321.40" fill="white" fill-opacity="0.9"/>
<path d="M316.20 334.52L303.72 334.52L303.72 331.90L308.49 331.90L308.49 313.78L303.72 313.78L303.72 311.16L316.20 311.16L316.20 313.78L311.43 313.78L311.43 331.90L316.20 331.90" fill="white" fill-opacity="0.9"/>
<path d="M330.60 334.52L327.72 334.52L327.72 313.78L321.32 313.78L321.32 311.16L337 311.16L337 313.78L330.60 313.78" fill="white" fill-opacity="0.9"/>
<path d="M349.80 334.52L346.92 334.52L346.92 325.78L339.88 311.16L342.95 311.16L347.50 320.76Q347.88 321.56 348.11 322.12Q348.33 322.68 348.39 322.94Q348.46 322.68 348.70 322.12Q348.94 321.56 349.32 320.76L353.87 311.16L356.84 311.16L349.80 325.78" fill="white" fill-opacity="0.9"/>
<path d="M382.83 334.52L380.04 334.52L380.04 311.16L383.88 311.16L391.02 331.16Q390.95 330.36 390.87 329.19Q390.79 328.02 390.75 326.73Q390.70 325.43 390.70 324.28L390.70 311.16L393.48 311.16L393.48 334.52L389.64 334.52L382.54 314.52Q382.60 315.29 382.67 316.46Q382.73 317.62 382.78 318.92Q382.83 320.22 382.83 321.40" fill="white" fill-opacity="0.9"/>
<path d="M405.96 334.84Q402.83 334.84 401 333.02Q399.18 331.19 399.18 327.80L399.18 317.88Q399.18 314.49 401 312.66Q402.83 310.84 405.96 310.84Q409.10 310.84 410.92 312.66Q412.75 314.49 412.75 317.85L412.75 327.80Q412.75 331.19 410.92 333.02Q409.10 334.84 405.96 334.84M405.96 332.25Q407.85 332.25 408.86 331.18Q409.87 330.10 409.87 328.12L409.87 317.56Q409.87 315.58 408.86 314.50Q407.85 313.43 405.96 313.43Q404.11 313.43 403.08 314.50Q402.06 315.58 402.06 317.56L402.06 328.12Q402.06 330.10 403.08 331.18Q404.11 332.25 405.96 332.25" fill="white" fill-opacity="0.9"/>
<path d="M424.55 334.52L418.51 334.52L418.51 311.16L424.55 311.16Q426.83 311.16 428.47 312.02Q430.12 312.89 431.03 314.46Q431.95 316.02 431.95 318.17L431.95 327.48Q431.95 329.62 431.03 331.21Q430.12 332.79 428.47 333.66Q426.83 334.52 424.55 334.52M421.39 313.72L421.39 331.96L424.55 331.96Q426.67 331.96 427.87 330.78Q429.07 329.59 429.07 327.48L429.07 318.17Q429.07 316.09 427.87 314.90Q426.67 313.72 424.55 313.72" fill="white" fill-opacity="0.9"/>
<path d="M451.40 334.52L437.96 334.52L437.96 311.16L451.40 311.16L451.40 313.78L440.81 313.78L440.81 321.02L450.28 321.02L450.28 323.58L440.81 323.58L440.81 331.90L451.40 331.90" fill="white" fill-opacity="0.9"/>
<path d="M463.69 334.84Q460.30 334.84 458.28 333.05Q456.27 331.26 456.27 328.12L459.15 328.12Q459.15 330.07 460.39 331.18Q461.64 332.28 463.69 332.28Q465.67 332.28 466.86 331.13Q468.04 329.98 468.04 328.12Q468.04 326.71 467.29 325.67Q466.54 324.63 465.13 324.25L461.58 323.26Q459.37 322.62 458.11 320.97Q456.84 319.32 456.84 317.08Q456.84 315.22 457.67 313.82Q458.51 312.41 460.01 311.62Q461.51 310.84 463.47 310.84Q465.45 310.84 466.97 311.62Q468.49 312.41 469.35 313.80Q470.22 315.19 470.22 317.02L467.34 317.02Q467.34 315.42 466.25 314.41Q465.16 313.40 463.47 313.40Q461.77 313.40 460.71 314.41Q459.66 315.42 459.66 317.02Q459.66 318.30 460.35 319.21Q461.03 320.12 462.28 320.47L465.93 321.50Q468.27 322.14 469.56 323.91Q470.86 325.69 470.86 328.12Q470.86 331.19 468.91 333.02Q466.95 334.84 463.69 334.84" fill="white" fill-opacity="0.9"/>
</g>
<path d="M77.30 197.88Q74.75 197.88 73.24 196.54Q71.73 195.19 71.73 192.84L73.89 192.84Q73.89 194.30 74.82 195.13Q75.76 195.96 77.30 195.96Q78.78 195.96 79.67 195.10Q80.56 194.23 80.56 192.84Q80.56 191.78 80 191Q79.43 190.22 78.38 189.94L75.71 189.19Q74.06 188.71 73.11 187.48Q72.16 186.24 72.16 184.56Q72.16 183.17 72.78 182.11Q73.41 181.06 74.54 180.47Q75.66 179.88 77.13 179.88Q78.62 179.88 79.76 180.47Q80.90 181.06 81.54 182.10Q82.19 183.14 82.19 184.51L80.03 184.51Q80.03 183.31 79.22 182.56Q78.40 181.80 77.13 181.80Q75.86 181.80 75.06 182.56Q74.27 183.31 74.27 184.51Q74.27 185.47 74.79 186.16Q75.30 186.84 76.24 187.10L78.98 187.87Q80.73 188.35 81.70 189.68Q82.67 191.02 82.67 192.84Q82.67 195.14 81.21 196.51Q79.74 197.88 77.30 197.88" fill="white" fill-opacity="0.7"/>
<path d="M96.76 197.64L92.92 197.64Q91.29 197.64 90.30 196.69Q89.32 195.74 89.32 194.16L89.32 186.41L85.53 186.41L85.53 184.44L89.32 184.44L89.32 180.72L91.48 180.72L91.48 184.44L96.88 184.44L96.88 186.41L91.48 186.41L91.48 194.16Q91.48 194.83 91.88 195.25Q92.27 195.67 92.92 195.67L96.76 195.67" fill="white" fill-opacity="0.7"/>
<path d="M103.65 197.64L101.49 197.64L101.49 184.44L103.65 184.44L103.65 186.96L103.70 186.96Q103.86 185.69 104.78 184.94Q105.69 184.20 107.22 184.20Q109.29 184.20 110.40 185.44Q111.52 186.67 111.52 188.95L111.52 190.08L109.36 190.08L109.36 188.95Q109.36 186.07 106.55 186.07Q105.14 186.07 104.39 186.89Q103.65 187.70 103.65 189.24" fill="white" fill-opacity="0.7"/>
<path d="M120.40 197.83Q118.02 197.83 116.62 196.44Q115.22 195.05 115.22 192.55L115.22 189.53Q115.22 187.01 116.61 185.63QNaN 184.25 120.40 184.25Q122.80 184.25 124.19 185.63Q125.58 187.01 125.58 189.53L125.58 192.55Q125.58 195.05 124.18 196.44Q122.78 197.83 120.40 197.83M120.40 195.91Q121.82 195.91 122.62 195.12Q123.42 194.33 123.42 192.79L123.42 189.29Q123.42 187.75 122.62 186.96Q121.82 186.17 120.40 186.17Q119.01 186.17 118.19 186.96Q117.38 187.75 117.38 189.29L117.38 192.79Q117.38 194.33 118.19 195.12Q119.01 195.91 120.40 195.91" fill="white" fill-opacity="0.7"/>
<path d="M131.97 197.64L129.81 197.64L129.81 184.44L131.97 184.44L131.97 186.96L131.99 186.96Q132.16 185.64 133.07 184.92Q133.98 184.20 135.50 184.20Q137.49 184.20 138.66 185.42Q139.84 186.65 139.84 188.76L139.84 197.64L137.68 197.64L137.68 189.14Q137.68 187.63 136.92 186.83Q136.17 186.02 134.87 186.02Q133.53 186.02 132.75 186.86Q131.97 187.70 131.97 189.24" fill="white" fill-opacity="0.7"/>
<path d="M149.56 201.96L145.86 201.96L145.86 199.99L149.58 199.99Q150.71 199.99 151.36 199.36Q152.01 198.72 152.01 197.64L152.01 196.44L152.06 194.28L151.98 194.28Q151.79 195.46 150.86 196.09Q149.92 196.73 148.50 196.73Q146.46 196.73 145.29 195.43Q144.11 194.14 144.11 191.88L144.11 189.10Q144.11 186.84 145.29 185.52Q146.46 184.20 148.50 184.20Q149.92 184.20 150.86 184.87Q151.79 185.54 151.98 186.72L152.03 186.72L152.03 184.44L154.17 184.44L154.17 197.64Q154.17 199.63 152.93 200.80Q151.70 201.96 149.56 201.96M149.15 194.93Q150.50 194.93 151.26 194.09Q152.03 193.25 152.03 191.76L152.03 189.24Q152.03 187.75 151.26 186.91Q150.50 186.07 149.15 186.07Q147.78 186.07 147.03 186.86Q146.27 187.66 146.27 189L146.27 192Q146.27 193.34 147.03 194.14Q147.78 194.93 149.15 194.93" fill="white" fill-opacity="0.7"/>
<path d="M176.85 197.88Q174.81 197.88 173.61 196.74Q172.41 195.60 172.41 193.75Q172.41 192.53 172.96 191.62Q173.51 190.70 174.50 190.19Q175.48 189.67 176.75 189.67L180.83 189.67L180.83 188.64Q180.83 186.07 178.02 186.07Q176.78 186.07 176.01 186.53Q175.24 186.98 175.19 187.80L173.03 187.80Q173.15 186.24 174.48 185.22Q175.82 184.20 178.02 184.20Q180.42 184.20 181.71 185.35Q182.99 186.50 182.99 188.57L182.99 197.64L180.86 197.64L180.86 195.24L180.81 195.24Q180.62 196.46 179.58 197.17Q178.55 197.88 176.85 197.88M177.38 196.06Q178.96 196.06 179.90 195.29Q180.83 194.52 180.83 193.20L180.83 191.35L176.99 191.35Q175.94 191.35 175.28 191.99Q174.62 192.62 174.62 193.68Q174.62 194.78 175.35 195.42Q176.08 196.06 177.38 196.06" fill="white" fill-opacity="0.7"/>
<path d="M192.38 197.88Q190.10 197.88 188.73 196.52Q187.36 195.17 187.36 192.84L187.36 184.44L189.52 184.44L189.52 192.84Q189.52 194.28 190.29 195.13Q191.06 195.98 192.38 195.98Q193.72 195.98 194.50 195.13Q195.28 194.28 195.28 192.84L195.28 184.44L197.44 184.44L197.44 192.84Q197.44 195.17 196.05 196.52Q194.66 197.88 192.38 197.88" fill="white" fill-opacity="0.7"/>
<path d="M211.96 197.64L208.12 197.64Q206.49 197.64 205.50 196.69Q204.52 195.74 204.52 194.16L204.52 186.41L200.73 186.41L200.73 184.44L204.52 184.44L204.52 180.72L206.68 180.72L206.68 184.44L212.08 184.44L212.08 186.41L206.68 186.41L206.68 194.16Q206.68 194.83 207.08 195.25Q207.47 195.67 208.12 195.67L211.96 195.67" fill="white" fill-opacity="0.7"/>
<path d="M218.37 197.64L216.21 197.64L216.21 180.12L218.37 180.12L218.37 186.96L218.39 186.96Q218.56 185.64 219.47 184.92Q220.38 184.20 221.90 184.20Q223.89 184.20 225.06 185.42Q226.24 186.65 226.24 188.76L226.24 197.64L224.08 197.64L224.08 189.12Q224.08 187.63 223.32 186.83Q222.57 186.02 221.27 186.02Q219.93 186.02 219.15 186.86Q218.37 187.70 218.37 189.24" fill="white" fill-opacity="0.7"/>
<path d="M235.60 197.88Q233.27 197.88 231.84 196.48Q230.42 195.07 230.42 192.60L230.42 189.48Q230.42 187.01 231.84 185.60Q233.27 184.20 235.60 184.20Q237.16 184.20 238.32 184.82Q239.49 185.45 240.14 186.58Q240.78 187.70 240.78 189.24L240.78 191.59L232.53 191.59L232.53 192.84Q232.53 194.30 233.37 195.16Q234.21 196.01 235.60 196.01Q236.80 196.01 237.58 195.54Q238.36 195.07 238.53 194.28L240.69 194.28Q240.47 195.94 239.08 196.91Q237.69 197.88 235.60 197.88M232.53 189.24L232.53 189.91L238.67 189.91L238.67 189.24Q238.67 187.68 237.87 186.83Q237.06 185.98 235.60 185.98Q234.14 185.98 233.33 186.83Q232.53 187.68 232.53 189.24" fill="white" fill-opacity="0.7"/>
<path d="M247.17 197.64L245.01 197.64L245.01 184.44L247.17 184.44L247.17 186.96L247.19 186.96Q247.36 185.64 248.27 184.92Q249.18 184.20 250.70 184.20Q252.69 184.20 253.86 185.42Q255.04 186.65 255.04 188.76L255.04 197.64L252.88 197.64L252.88 189.14Q252.88 187.63 252.12 186.83Q251.37 186.02 250.07 186.02Q248.73 186.02 247.95 186.86Q247.17 187.70 247.17 189.24" fill="white" fill-opacity="0.7"/>
<path d="M269.56 197.64L265.72 197.64Q264.09 197.64 263.10 196.69Q262.12 195.74 262.12 194.16L262.12 186.41L258.33 186.41L258.33 184.44L262.12 184.44L262.12 180.72L264.28 180.72L264.28 184.44L269.68 184.44L269.68 186.41L264.28 186.41L264.28 194.16Q264.28 194.83 264.68 195.25Q265.07 195.67 265.72 195.67L269.56 195.67" fill="white" fill-opacity="0.7"/>
<path d="M284.92 197.64L273.64 197.64L273.64 195.67L278.32 195.67L278.32 186.41L274.12 186.41L274.12 184.44L280.48 184.44L280.48 195.67L284.92 195.67L284.92 197.64M279.16 182.06Q278.37 182.06 277.91 181.66Q277.46 181.25 277.46 180.55Q277.46 179.83 277.91 179.41Q278.37 178.99 279.16 178.99Q279.95 178.99 280.41 179.41Q280.86 179.83 280.86 180.55Q280.86 181.25 280.41 181.66Q279.95 182.06 279.16 182.06" fill="white" fill-opacity="0.7"/>
<path d="M293.39 197.88Q290.99 197.88 289.55 196.54Q288.11 195.19 288.11 192.84L288.11 189.24Q288.11 186.89 289.55 185.54Q290.99 184.20 293.39 184.20Q295.67 184.20 297.08 185.42Q298.48 186.65 298.55 188.76L296.39 188.76Q296.32 187.49 295.53 186.80Q294.74 186.12 293.39 186.12Q291.98 186.12 291.12 186.92Q290.27 187.73 290.27 189.22L290.27 192.84Q290.27 194.33 291.12 195.14Q291.98 195.96 293.39 195.96Q294.74 195.96 295.53 195.26Q296.32 194.57 296.39 193.32L298.55 193.32Q298.48 195.43 297.08 196.66Q295.67 197.88 293.39 197.88" fill="white" fill-opacity="0.7"/>
<path d="M306.45 197.88Q304.41 197.88 303.21 196.74Q302.01 195.60 302.01 193.75Q302.01 192.53 302.56 191.62Q303.11 190.70 304.10 190.19Q305.08 189.67 306.35 189.67L310.43 189.67L310.43 188.64Q310.43 186.07 307.62 186.07Q306.38 186.07 305.61 186.53Q304.84 186.98 304.79 187.80L302.63 187.80Q302.75 186.24 304.08 185.22Q305.42 184.20 307.62 184.20Q310.02 184.20 311.31 185.35Q312.59 186.50 312.59 188.57L312.59 197.64L310.46 197.64L310.46 195.24L310.41 195.24Q310.22 196.46 309.18 197.17Q308.15 197.88 306.45 197.88M306.98 196.06Q308.56 196.06 309.50 195.29Q310.43 194.52 310.43 193.20L310.43 191.35L306.59 191.35Q305.54 191.35 304.88 191.99Q304.22 192.62 304.22 193.68Q304.22 194.78 304.95 195.42Q305.68 196.06 306.98 196.06" fill="white" fill-opacity="0.7"/>
<path d="M327.16 197.64L323.32 197.64Q321.69 197.64 320.70 196.69Q319.72 195.74 319.72 194.16L319.72 186.41L315.93 186.41L315.93 184.44L319.72 184.44L319.72 180.72L321.88 180.72L321.88 184.44L327.28 184.44L327.28 186.41L321.88 186.41L321.88 194.16Q321.88 194.83 322.28 195.25Q322.67 195.67 323.32 195.67L327.16 195.67" fill="white" fill-opacity="0.7"/>
<path d="M342.52 197.64L331.24 197.64L331.24 195.67L335.92 195.67L335.92 186.41L331.72 186.41L331.72 184.44L338.08 184.44L338.08 195.67L342.52 195.67L342.52 197.64M336.76 182.06Q335.97 182.06 335.51 181.66Q335.06 181.25 335.06 180.55Q335.06 179.83 335.51 179.41Q335.97 178.99 336.76 178.99Q337.55 178.99 338.01 179.41Q338.46 179.83 338.46 180.55Q338.46 181.25 338.01 181.66Q337.55 182.06 336.76 182.06" fill="white" fill-opacity="0.7"/>
<path d="M350.80 197.83Q348.42 197.83 347.02 196.44Q345.62 195.05 345.62 192.55L345.62 189.53Q345.62 187.01 347.01 185.63Q348.40 184.25 350.80 184.25Q353.20 184.25 354.59 185.63Q355.98 187.01 355.98 189.53L355.98 192.55Q355.98 195.05 354.58 196.44Q353.18 197.83 350.80 197.83M350.80 195.91Q352.22 195.91 353.02 195.12Q353.82 194.33 353.82 192.79L353.82 189.29Q353.82 187.75 353.02 186.96Q352.22 186.17 350.80 186.17Q349.41 186.17 348.59 186.96Q347.78 187.75 347.78 189.29L347.78 192.79Q347.78 194.33 348.59 195.12Q349.41 195.91 350.80 195.91" fill="white" fill-opacity="0.7"/>
<path d="M362.37 197.64L360.21 197.64L360.21 184.44L362.37 184.44L362.37 186.96L362.39 186.96Q362.56 185.64 363.47 184.92Q364.38 184.20 365.90 184.20Q367.89 184.20 369.06 185.42Q370.24 186.65 370.24 188.76L370.24 197.64L368.08 197.64L368.08 189.14Q368.08 187.63 367.32 186.83Q366.57 186.02 365.27 186.02Q363.93 186.02 363.15 186.86Q362.37 187.70 362.37 189.24" fill="white" fill-opacity="0.7"/>
<path d="M379.67 201.48L377.44 201.48L378.76 194.14L381.35 194.14" fill="white" fill-opacity="0.7"/>
<path d="M406.48 197.64L404.10 197.64L401.94 184.44L403.82 184.44L405.16 193.75Q405.23 194.28 405.30 194.92Q405.38 195.55 405.40 195.96Q405.45 195.55 405.51 194.92Q405.57 194.28 405.66 193.75L407.32 184.44L409.48 184.44L411.14 193.75Q411.23 194.28 411.32 194.92Q411.40 195.55 411.42 195.96Q411.47 195.55 411.54 194.92Q411.62 194.28 411.69 193.75L413.08 184.44L414.86 184.44L412.60 197.64L410.22 197.64L408.71 188.52Q408.62 187.85 408.53 187.09Q408.45 186.34 408.40 185.93Q408.38 186.34 408.28 187.09Q408.18 187.85 408.06 188.52" fill="white" fill-opacity="0.7"/>
<path d="M428.92 197.64L417.64 197.64L417.64 195.67L422.32 195.67L422.32 186.41L418.12 186.41L418.12 184.44L424.48 184.44L424.48 195.67L428.92 195.67L428.92 197.64M423.16 182.06Q422.37 182.06 421.91 181.66Q421.46 181.25 421.46 180.55Q421.46 179.83 421.91 179.41Q422.37 178.99 423.16 178.99Q423.95 178.99 424.41 179.41Q424.86 179.83 424.86 180.55Q424.86 181.25 424.41 181.66Q423.95 182.06 423.16 182.06" fill="white" fill-opacity="0.7"/>
<path d="M442.36 197.64L438.52 197.64Q436.89 197.64 435.90 196.69Q434.92 195.74 434.92 194.16L434.92 186.41L431.13 186.41L431.13 184.44L434.92 184.44L434.92 180.72L437.08 180.72L437.08 184.44L442.48 184.44L442.48 186.41L437.08 186.41L437.08 194.16Q437.08 194.83 437.48 195.25Q437.87 195.67 438.52 195.67L442.36 195.67" fill="white" fill-opacity="0.7"/>
<path d="M448.77 197.64L446.61 197.64L446.61 180.12L448.77 180.12L448.77 186.96L448.79 186.96Q448.96 185.64 449.87 184.92Q450.78 184.20 452.30 184.20Q454.29 184.20 455.46 185.42Q456.64 186.65 456.64 188.76L456.64 197.64L454.48 197.64L454.48 189.12Q454.48 187.63 453.72 186.83Q452.97 186.02 451.67 186.02Q450.33 186.02 449.55 186.86Q448.77 187.70 448.77 189.24" fill="white" fill-opacity="0.7"/>
<path d="M466 197.83Q463.62 197.83 462.22 196.44Q460.82 195.05 460.82 192.55L460.82 189.53Q460.82 187.01 462.21 185.63Q463.60 184.25 466 184.25Q468.40 184.25 469.79 185.63Q471.18 187.01 471.18 189.53L471.18 192.55Q471.18 195.05 469.78 196.44Q468.38 197.83 466 197.83M466 195.91Q467.42 195.91 468.22 195.12Q469.02 194.33 469.02 192.79L469.02 189.29Q469.02 187.75 468.22 186.96Q467.42 186.17 466 186.17Q464.61 186.17 463.79 186.96Q462.98 187.75 462.98 189.29L462.98 192.79Q462.98 194.33 463.79 195.12Q464.61 195.91 466 195.91" fill="white" fill-opacity="0.7"/>
<path d="M480.38 197.88Q478.10 197.88 476.73 196.52Q475.36 195.17 475.36 192.84L475.36 184.44L477.52 184.44L477.52 192.84Q477.52 194.28 478.29 195.13Q479.06 195.98 480.38 195.98Q481.72 195.98 482.50 195.13Q483.28 194.28 483.28 192.84L483.28 184.44L485.44 184.44L485.44 192.84Q485.44 195.17 484.05 196.52Q482.66 197.88 480.38 197.88" fill="white" fill-opacity="0.7"/>
<path d="M499.96 197.64L496.12 197.64Q494.49 197.64 493.50 196.69Q492.52 195.74 492.52 194.16L492.52 186.41L488.73 186.41L488.73 184.44L492.52 184.44L492.52 180.72L494.68 180.72L494.68 184.44L500.08 184.44L500.08 186.41L494.68 186.41L494.68 194.16Q494.68 194.83 495.08 195.25Q495.47 195.67 496.12 195.67L499.96 195.67" fill="white" fill-opacity="0.7"/>
<path d="M528.76 197.64L524.92 197.64Q523.29 197.64 522.30 196.69Q521.32 195.74 521.32 194.16L521.32 186.41L517.53 186.41L517.53 184.44L521.32 184.44L521.32 180.72L523.48 180.72L523.48 184.44L528.88 184.44L528.88 186.41L523.48 186.41L523.48 194.16Q523.48 194.83 523.88 195.25Q524.27 195.67 524.92 195.67L528.76 195.67" fill="white" fill-opacity="0.7"/>
<path d="M535.17 197.64L533.01 197.64L533.01 180.12L535.17 180.12L535.17 186.96L535.19 186.96Q535.36 185.64 536.27 184.92Q537.18 184.20 538.70 184.20Q540.69 184.20 541.86 185.42Q543.04 186.65 543.04 188.76L543.04 197.64L540.88 197.64L540.88 189.12Q540.88 187.63 540.12 186.83Q539.37 186.02 538.07 186.02Q536.73 186.02 535.95 186.86Q535.17 187.70 535.17 189.24" fill="white" fill-opacity="0.7"/>
<path d="M552.40 197.88Q550.07 197.88 548.64 196.48Q547.22 195.07 547.22 192.60L547.22 189.48Q547.22 187.01 548.64 185.60Q550.07 184.20 552.40 184.20Q553.96 184.20 555.12 184.82Q556.29 185.45 556.94 186.58Q557.58 187.70 557.58 189.24L557.58 191.59L549.33 191.59L549.33 192.84Q549.33 194.30 550.17 195.16Q551.01 196.01 552.40 196.01Q553.60 196.01 554.38 195.54Q555.16 195.07 555.33 194.28L557.49 194.28Q557.27 195.94 555.88 196.91Q554.49 197.88 552.40 197.88M549.33 189.24L549.33 189.91L555.47 189.91L555.47 189.24Q555.47 187.68 554.67 186.83Q553.86 185.98 552.40 185.98Q550.94 185.98 550.13 186.83Q549.33 187.68 549.33 189.24" fill="white" fill-opacity="0.7"/>
<path d="M578.37 201.96L576.21 201.96L576.21 184.44L578.37 184.44L578.37 186.96L578.39 186.96Q578.56 185.66 579.52 184.93Q580.48 184.20 581.97 184.20Q583.96 184.20 585.14 185.51Q586.31 186.82 586.31 189.10L586.31 192.96Q586.31 195.24 585.14 196.56Q583.96 197.88 581.97 197.88Q580.48 197.88 579.52 197.14Q578.56 196.39 578.39 195.12L578.32 195.12L578.37 198.12L578.37 201.96M581.25 196.01Q582.62 196.01 583.38 195.29Q584.15 194.57 584.15 192.96L584.15 189.12Q584.15 187.49 583.38 186.78Q582.62 186.07 581.25 186.07Q579.93 186.07 579.15 186.91Q578.37 187.75 578.37 189.24L578.37 192.84Q578.37 194.33 579.15 195.17Q579.93 196.01 581.25 196.01" fill="white" fill-opacity="0.7"/>
<path d="M594.45 197.88Q592.41 197.88 591.21 196.74Q590.01 195.60 590.01 193.75Q590.01 192.53 590.56 191.62Q591.11 190.70 592.10 190.19Q593.08 189.67 594.35 189.67L598.43 189.67L598.43 188.64Q598.43 186.07 595.62 186.07Q594.38 186.07 593.61 186.53Q592.84 186.98 592.79 187.80L590.63 187.80Q590.75 186.24 592.08 185.22Q593.42 184.20 595.62 184.20Q598.02 184.20 599.31 185.35Q600.59 186.50 600.59 188.57L600.59 197.64L598.46 197.64L598.46 195.24L598.41 195.24Q598.22 196.46 597.18 197.17Q596.15 197.88 594.45 197.88M594.98 196.06Q596.56 196.06 597.50 195.29Q598.43 194.52 598.43 193.20L598.43 191.35L594.59 191.35Q593.54 191.35 592.88 191.99Q592.22 192.62 592.22 193.68Q592.22 194.78 592.95 195.42Q593.68 196.06 594.98 196.06" fill="white" fill-opacity="0.7"/>
<path d="M610.53 197.83L609.47 197.83Q607.26 197.83 606.05 196.84Q604.84 195.84 604.84 194.02L607 194.02Q607 194.93 607.65 195.44Q608.30 195.96 609.47 195.96L610.53 195.96Q611.73 195.96 612.39 195.43Q613.05 194.90 613.05 193.94Q613.05 192.24 611.49 192.02L607.84 191.50Q606.50 191.30 605.75 190.38Q605.01 189.46 605.01 187.94Q605.01 186.22 606.20 185.23Q607.38 184.25 609.47 184.25L610.53 184.25Q612.45 184.25 613.66 185.20Q614.87 186.14 614.97 187.68L612.78 187.68Q612.74 186.98 612.12 186.53Q611.51 186.07 610.53 186.07L609.47 186.07Q608.37 186.07 607.74 186.58Q607.12 187.08 607.12 187.94Q607.12 189.34 608.39 189.53L611.80 190.01Q615.16 190.49 615.16 193.94Q615.16 195.79 613.95 196.81Q612.74 197.83 610.53 197.83" fill="white" fill-opacity="0.7"/>
<path d="M624.93 197.83L623.87 197.83Q621.66 197.83 620.45 196.84Q619.24 195.84 619.24 194.02L621.40 194.02Q621.40 194.93 622.05 195.44Q622.70 195.96 623.87 195.96L624.93 195.96Q626.13 195.96 626.79 195.43Q627.45 194.90 627.45 193.94Q627.45 192.24 625.89 192.02L622.24 191.50Q620.90 191.30 620.15 190.38Q619.41 189.46 619.41 187.94Q619.41 186.22 620.60 185.23Q621.78 184.25 623.87 184.25L624.93 184.25Q626.85 184.25 628.06 185.20Q629.27 186.14 629.37 187.68L627.18 187.68Q627.14 186.98 626.52 186.53Q625.91 186.07 624.93 186.07L623.87 186.07Q622.77 186.07 622.14 186.58Q621.52 187.08 621.52 187.94Q621.52 189.34 622.79 189.53L626.20 190.01Q629.56 190.49 629.56 193.94Q629.56 195.79 628.35 196.81Q627.14 197.83 624.93 197.83" fill="white" fill-opacity="0.7"/>
<path d="M636.88 197.64L634.50 197.64L632.34 184.44L634.22 184.44L635.56 193.75Q635.63 194.28 635.70 194.92Q635.78 195.55 635.80 195.96Q635.85 195.55 635.91 194.92Q635.97 194.28 636.06 193.75L637.72 184.44L639.88 184.44L641.54 193.75Q641.63 194.28 641.72 194.92Q641.80 195.55 641.82 195.96Q641.87 195.55 641.94 194.92Q642.02 194.28 642.09 193.75L643.48 184.44L645.26 184.44L643 197.64L640.62 197.64L639.11 188.52Q639.02 187.85 638.93 187.09Q638.85 186.34 638.80 185.93Q638.78 186.34 638.68 187.09Q638.58 187.85 638.46 188.52" fill="white" fill-opacity="0.7"/>
<path d="M653.20 197.83Q650.82 197.83 649.42 196.44Q648.02 195.05 648.02 192.55L648.02 189.53Q648.02 187.01 649.41 185.63Q650.80 184.25 653.20 184.25Q655.60 184.25 656.99 185.63Q658.38 187.01 658.38 189.53L658.38 192.55Q658.38 195.05 656.98 196.44Q655.58 197.83 653.20 197.83M653.20 195.91Q654.62 195.91 655.42 195.12Q656.22 194.33 656.22 192.79L656.22 189.29Q656.22 187.75 655.42 186.96Q654.62 186.17 653.20 186.17Q651.81 186.17 650.99 186.96Q650.18 187.75 650.18 189.29L650.18 192.79Q650.18 194.33 650.99 195.12Q651.81 195.91 653.20 195.91" fill="white" fill-opacity="0.7"/>
<path d="M665.25 197.64L663.09 197.64L663.09 184.44L665.25 184.44L665.25 186.96L665.30 186.96Q665.46 185.69 666.38 184.94Q667.29 184.20 668.82 184.20Q670.89 184.20 672 185.44Q673.12 186.67 673.12 188.95L673.12 190.08L670.96 190.08L670.96 188.95Q670.96 186.07 668.15 186.07Q666.74 186.07 665.99 186.89Q665.25 187.70 665.25 189.24" fill="white" fill-opacity="0.7"/>
<path d="M681.23 197.88Q679.26 197.88 678.08 196.56Q676.89 195.24 676.89 192.98L676.89 189.12Q676.89 186.84 678.06 185.52Q679.24 184.20 681.23 184.20Q682.72 184.20 683.69 184.94Q684.66 185.69 684.86 186.96L684.88 186.96L684.83 183.96L684.83 180.12L686.99 180.12L686.99 197.64L684.83 197.64L684.83 195.12L684.81 195.12Q684.64 196.42 683.68 197.15Q682.72 197.88 681.23 197.88M681.95 196.01Q683.30 196.01 684.06 195.17Q684.83 194.33 684.83 192.84L684.83 189.24Q684.83 187.75 684.06 186.91Q683.30 186.07 681.95 186.07Q680.58 186.07 679.82 186.78Q679.05 187.49 679.05 189.12L679.05 192.96Q679.05 194.57 679.82 195.29Q680.58 196.01 681.95 196.01" fill="white" fill-opacity="0.7"/>
<path d="M696.93 197.83L695.87 197.83Q693.66 197.83 692.45 196.84Q691.24 195.84 691.24 194.02L693.40 194.02Q693.40 194.93 694.05 195.44Q694.70 195.96 695.87 195.96L696.93 195.96Q698.13 195.96 698.79 195.43Q699.45 194.90 699.45 193.94Q699.45 192.24 697.89 192.02L694.24 191.50Q692.90 191.30 692.15 190.38Q691.41 189.46 691.41 187.94Q691.41 186.22 692.60 185.23Q693.78 184.25 695.87 184.25L696.93 184.25Q698.85 184.25 700.06 185.20Q701.27 186.14 701.37 187.68L699.18 187.68Q699.14 186.98 698.52 186.53Q697.91 186.07 696.93 186.07L695.87 186.07Q694.77 186.07 694.14 186.58Q693.52 187.08 693.52 187.94Q693.52 189.34 694.79 189.53L698.20 190.01Q701.56 190.49 701.56 193.94Q701.56 195.79 700.35 196.81Q699.14 197.83 696.93 197.83" fill="white" fill-opacity="0.7"/>
<path d="M710.80 197.88Q709.91 197.88 709.37 197.35Q708.83 196.82 708.83 195.98Q708.83 195.10 709.37 194.54Q709.91 193.99 710.80 193.99Q711.69 193.99 712.23 194.54Q712.77 195.10 712.77 195.98Q712.77 196.82 712.23 197.35Q711.69 197.88 710.80 197.88" fill="white" fill-opacity="0.7"/>
<path d="M76.11 136.06L66.42 136.06L84.56 65.98L97.14 65.98L115.18 136.06L105.49 136.06L101.07 117.82L80.53 117.82L76.11 136.06M87.54 88.92L82.45 109.95L99.15 109.95L94.16 89.02Q92.72 83.26 91.86 79.23Q90.99 75.20 90.80 73.76Q90.61 75.20 89.74 79.23Q88.88 83.26 87.54 88.92M148.40 137.02Q138.51 137.02 133.18 131.55Q127.86 126.08 127.86 116.67L127.86 65.98L137.36 65.98L137.36 116.67Q137.36 122.24 140.10 125.40Q142.83 128.57 148.40 128.57Q153.87 128.57 156.70 125.40Q159.54 122.24 159.54 116.67L159.54 65.98L169.04 65.98L169.04 116.67Q169.04 126.17 163.71 131.60Q158.38 137.02 148.40 137.02M210.80 136.06L201.30 136.06L201.30 74.62L182.29 74.62L182.29 65.98L229.71 65.98L229.71 74.62L210.80 74.62L210.80 136.06M252.85 136.06L243.34 136.06L243.34 65.98L252.85 65.98L252.85 95.55L274.35 95.55L274.35 65.98L283.86 65.98L283.86 136.06L274.35 136.06L274.35 104.19L252.85 104.19L252.85 136.06M342.51 136.06L301.71 136.06L301.71 65.98L342.51 65.98L342.51 74.52L311.12 74.52L311.12 95.36L339.15 95.36L339.15 103.61L311.12 103.61L311.12 127.52L342.51 127.52L342.51 136.06M367.18 136.06L358.26 136.06L358.26 65.98L370.54 65.98L391.47 125.12Q391.18 122.62 390.94 118.92Q390.70 115.23 390.56 111.24Q390.42 107.26 390.42 103.71L390.42 65.98L399.44 65.98L399.44 136.06L387.06 136.06L366.32 76.92Q366.51 79.42 366.70 83.02Q366.90 86.62 367.04 90.56Q367.18 94.49 367.18 97.95L367.18 136.06M441.20 136.06L431.70 136.06L431.70 74.62L412.69 74.62L412.69 65.98L460.11 65.98L460.11 74.62L441.20 74.62L441.20 136.06M513.10 136.06L474.90 136.06L474.90 127.42L489.20 127.42L489.20 74.62L474.90 74.62L474.90 65.98L513.10 65.98L513.10 74.62L498.80 74.62L498.80 127.42L513.10 127.42L513.10 136.06M573.78 153.34L563.02 153.34L553.04 136.92Q552.75 137.02 552.37 137.02Q551.98 137.02 551.60 137.02Q541.81 137.02 NaN 131.36Q530.19 125.69 530.19 116.28L530.19 85.76Q530.19 76.25 NaN 70.64Q541.81 65.02 551.60 65.02Q561.39 65.02 567.20 70.64Q573.01 76.25 573.01 85.76L573.01 116.28Q573.01 122.72 570.22 127.52Q567.44 132.32 562.45 134.72L573.78 153.34M551.60 128.57Q557.07 128.57 560.29 125.26Q563.50 121.95 563.50 116.28L563.50 85.76Q563.50 80.09 560.29 76.73Q557.07 73.37 551.60 73.37Q546.13 73.37 542.91 76.73Q539.70 80.09 539.70 85.76L539.70 116.28Q539.70 121.95 542.91 125.26Q546.13 128.57 551.60 128.57M628.30 136.06L590.10 136.06L590.10 127.42L604.40 127.42L604.40 74.62L590.10 74.62L590.10 65.98L628.30 65.98L628.30 74.62LNaN 74.62LNaN 127.42L628.30 127.42L628.30 136.06M666.80 137.02Q657.20 137.02 651.63 131.45Q646.06 125.88 646.06 115.71L646.06 86.24Q646.06 76.16 651.63 70.59Q657.20 65.02 666.80 65.02Q676.40 65.02 681.97 70.54Q687.54 76.06 687.54 86.24L687.54 115.71Q687.54 125.88 681.97 131.45Q676.40 137.02 666.80 137.02M666.80 128.57Q672.18 128.57 675.10 125.50Q678.03 122.43 678.03 116.67L678.03 85.28Q678.03 79.61 675.15 76.54Q672.27 73.47 666.80 73.47Q661.33 73.47 658.45 76.54Q655.57 79.61 655.57 85.28L655.57 116.67Q655.57 122.43 658.50 125.50Q661.42 128.57 666.80 128.57" fill="url(#paint2_linear_0_1)"/>
<g id="Group 1">
<rect id="Rectangle 1" x="26" y="168" width="12" height="184" rx="5" fill="url(#paint3_linear_0_1)" fill-opacity="0.9"/>
</g>
<g id="Group 1_2">
<rect id="Rectangle 2" x="26" y="38" width="12" height="119" rx="5" fill="url(#paint4_linear_0_1)" fill-opacity="0.9"/>
</g>
<ellipse id="Ellipse 1" cx="148.5" cy="573" rx="215.5" ry="214" fill="url(#paint5_linear_0_1)" fill-opacity="0.4"/>
<rect id="Rectangle 3" x="1229" y="48" width="300" height="300" rx="25" fill="#FFFBFB" fill-opacity="0.9"/>
<g id="placeholder-logo"><g transform="translate(1229,48) translate(0.0,15.0) scale(3.0000)"><g id="logo">		<path d="M 100 61.3837 L 100 28.6168 C 100 26.4381 98.7496 23.9664 97.2213 23.124 L 53.9407 1.5062 C 50.0811 -0.5648 48.8573 -0.3295 45 1.6474 L 2.7776 23.1202 C 1.2498 23.9649 0 26.4381 0 28.6168 L 0 61.3837 C 0 63.5621 1.2498 66.0362 2.7776 66.8805 L 45.0187 88.3636 C 49.5222 90.8828 50.5576 90.0546 54.0258 88.4844 L 97.2213 66.877 C 98.7496 66.0341 100 63.5621 100 61.3837 Z" fill="#ffffff"/>		<path d="M 37.476 45.4665 C 37.476 39.7905 41.8408 35.1892 47.2256 35.1892 C 52.6104 35.1892 56.975 39.7905 56.975 45.4665 C 56.975 51.1425 52.6104 55.7438 47.2256 55.7438 C 41.8408 55.7438 37.476 51.1425 37.476 45.4665 ZM 74 54.6389 C 73.4625 54.7764 72.9307 54.9231 72.3655 54.9231 C 71.2145 54.9231 70.9222 54.6184 70.1405 53.9962 C 69.3803 53.3755 69 52.5118 69 51.3951 L 69 26 L 57 26 L 57 30.3172 C 55.4522 28.5475 53.6607 27.9727 51.6463 27.1527 C 49.6266 26.3416 47.4072 25.9305 45.0506 25.9305 C 42.2166 25.9305 39.6651 26.4561 37.3739 27.4996 C 35.0877 28.542 33.1391 29.9475 31.5099 31.7069 C 29.9029 33.4755 28.6539 35.5304 27.7746 37.8787 C 26.9061 40.2314 26.4715 42.7125 26.4715 45.3287 C 26.4715 48.0045 26.9061 50.521 27.7746 52.8704 C 28.6539 55.2187 29.9029 57.2768 31.5099 59.0409 C 33.1391 60.7991 35.0877 62.2058 37.3739 63.2539 C 39.6651 64.2962 42.2166 64.8174 45.0506 64.8174 C 47.8142 64.8174 50.3062 64.2858 52.5326 63.2069 C 54.7476 62.1211 56.5988 60.4418 58.0811 58.1566 C 59.0258 60.1153 60.3559 61.7156 62.0666 62.9594 C 63.7875 64.2011 65.7588 64.8174 67.9842 64.8174 C 69.5267 64.8174 70.9215 64.6387 72.4689 64.2858 C 73.0387 64.1484 73.4732 63.7796 74 63.5746 L 74 54.6389 Z" fill="#F05023"/>	</g></g></g>
</g>
<defs>
<linearGradient id="paint0_linear_0_1" x1="0" y1="198" x2="1584" y2="198" gradientUnits="userSpaceOnUse">
<stop stop-color="#3D052C"/>
<stop offset="1"/>
</linearGradient>
<linearGradient id="paint1_linear_0_1" x1="323" y1="-224" x2="323" y2="352" gradientUnits="userSpaceOnUse">
<stop stop-color="#28F6F2" stop-opacity="0.4"/>
<stop offset="1" stop-color="#17908E" stop-opacity="0.7"/>
</linearGradient>
<linearGradient id="paint2_linear_0_1" x1="148.5" y1="38" x2="148.5" y2="140" gradientUnits="userSpaceOnUse">
<stop stop-color="white"/>
<stop offset="1" stop-color="#999999"/>
</linearGradient>
<linearGradient id="paint3_linear_0_1" x1="38" y1="260" x2="26" y2="260" gradientUnits="userSpaceOnUse">
<stop stop-color="#D9D9D9"/>
<stop offset="1" stop-color="#737373"/>
</linearGradient>
<linearGradient id="paint4_linear_0_1" x1="38" y1="97.5" x2="26" y2="97.5" gradientUnits="userSpaceOnUse">
<stop stop-color="#D9D9D9"/>
<stop offset="1" stop-color="#737373"/>
</linearGradient>
<linearGradient id="paint5_linear_0_1" x1="27.5" y1="434.5" x2="148.5" y2="787" gradientUnits="userSpaceOnUse">
<stop stop-color="#2E21BC"/>
<stop offset="1" stop-color="#150F56"/>
</linearGradient>
<clipPath id="clip0_0_1">
<rect width="1584" height="396" fill="white"/>
</clipPath>
</defs>
</svg>
