<svg width="1584" height="396" viewBox="0 0 1584 396" fill="none" xmlns="http://www.w3.org/2000/svg">
<rect width="1584" height="396" fill="#F5F5F5"/>
<g id="Awesome banner" clip-path="url(#clip0_0_1)">
<rect width="1584" height="396" fill="url(#paint0_linear_0_1)"/>
<ellipse id="Ellipse 2" cx="323" cy="64" rx="285" ry="288" fill="url(#paint1_linear_0_1)" fill-opacity="0.1"/>
<g id="copyright">
<path d="M75.95 334.52L72.30 334.52L72.30 311.16L77.20 311.16L83.70 330.04Q83.60 329.02 83.50 327.62Q83.41 326.23 83.33 324.79Q83.25 323.35 83.25 322.23L83.25 311.16L86.90 311.16L86.90 334.52L82 334.52L75.57 315.64Q75.63 316.57 75.73 317.88Q75.82 319.19 75.89 320.57Q75.95 321.94 75.95 323.10L75.95 334.52M98.80 334.84Q96.46 334.84 94.67 333.96Q92.88 333.08 91.89 331.53Q90.90 329.98 90.90 327.93Q90.90 325.78 92.13 324.18Q93.36 322.58 95.34 322.17L95.34 322.10Q93.65 321.75 92.61 320.38Q91.57 319 91.57 317.11Q91.57 315.26 92.48 313.85Q93.39 312.44 95.02 311.64Q96.66 310.84 98.80 310.84Q100.94 310.84 102.59 311.64Q104.24 312.44 105.15 313.85Q106.06 315.26 106.06 317.11Q106.06 319 105.01 320.38Q103.95 321.75 102.26 322.10L102.26 322.17Q104.24 322.58 105.47 324.18Q106.70 325.78 106.70 327.93Q106.70 329.98 105.71 331.53Q104.72 333.08 102.93 333.96Q101.14 334.84 98.80 334.84M98.80 320.73Q100.30 320.73 101.23 319.82Q102.16 318.90 102.16 317.46Q102.16 315.99 101.23 315.08Q100.30 314.17 98.80 314.17Q97.30 314.17 96.37 315.08Q95.44 315.99 95.44 317.46Q95.44 318.90 96.37 319.82Q97.30 320.73 98.80 320.73M98.80 331.45Q100.56 331.45 101.68 330.42Q102.80 329.40 102.80 327.74Q102.80 326.04 101.68 325Q100.56 323.96 98.80 323.96Q97.04 323.96 95.92 325Q94.80 326.04 94.80 327.74Q94.80 329.40 95.92 330.42Q97.04 331.45 98.80 331.45M114.35 334.52L110.70 334.52L110.70 311.16L115.60 311.16L122.10 330.04Q122 329.02 121.90 327.62Q121.81 326.23 121.73 324.79Q121.65 323.35 121.65 322.23L121.65 311.16L125.30 311.16L125.30 334.52L120.40 334.52L113.97 315.64Q114.03 316.57 114.13 317.88Q114.22 319.19 114.29 320.57Q114.35 321.94 114.35 323.10" fill="white" fill-opacity="0.9"/>
<path d="M161.48 325.24L151.24 325.24L151.24 322.68L161.48 322.68" fill="white" fill-opacity="0.9"/>
<path d="M195.02 334.84Q191.82 334.84 189.96 333.05Q188.11 331.26 188.11 328.12L188.11 317.56Q188.11 314.42 189.96 312.63Q191.82 310.84 195.02 310.84Q198.15 310.84 200.01 312.65Q201.87 314.46 201.87 317.56L198.99 317.56Q198.99 315.58 197.95 314.50Q196.91 313.43 195.02 313.43Q193.13 313.43 192.06 314.50Q190.99 315.58 190.99 317.56L190.99 328.12Q190.99 330.10 192.06 331.18Q193.13 332.25 195.02 332.25Q196.91 332.25 197.95 331.18Q198.99 330.10 198.99 328.12L201.87 328.12Q201.87 331.22 200.01 333.03Q198.15 334.84 195.02 334.84" fill="white" fill-opacity="0.9"/>
<path d="M213.96 334.84Q210.83 334.84 209 333.02Q207.18 331.19 207.18 327.80L207.18 317.88Q207.18 314.49 209 312.66Q210.83 310.84 213.96 310.84Q217.10 310.84 218.92 312.66Q220.75 314.49 220.75 317.85L220.75 327.80Q220.75 331.19 218.92 333.02Q217.10 334.84 213.96 334.84M213.96 332.25Q215.85 332.25 216.86 331.18Q217.87 330.10 217.87 328.12L217.87 317.56Q217.87 315.58 216.86 314.50Q215.85 313.43 213.96 313.43Q212.11 313.43 211.08 314.50Q210.06 315.58 210.06 317.56L210.06 328.12Q210.06 330.10 211.08 331.18Q212.11 332.25 213.96 332.25" fill="white" fill-opacity="0.9"/>
<path d="M228.65 334.52L225.87 334.52L225.87 311.16L230.12 311.16L233.10 321.27L236.20 311.16L240.46 311.16L240.46 334.52L237.67 334.52L237.67 323.48Q237.67 321.91 237.72 319.88Q237.77 317.85 237.87 315.77Q237.96 313.69 238.09 312.02L234.31 324.09L231.82 324.09L228.20 312.31Q228.46 314.68 228.55 317.50Q228.65 320.31 228.65 323.48" fill="white" fill-opacity="0.9"/>
<path d="M247.85 334.52L245.07 334.52L245.07 311.16L249.32 311.16L252.30 321.27L255.40 311.16L259.66 311.16L259.66 334.52L256.87 334.52L256.87 323.48Q256.87 321.91 256.92 319.88Q256.97 317.85 257.07 315.77Q257.16 313.69 257.29 312.02L253.51 324.09L251.02 324.09L247.40 312.31Q247.66 314.68 247.75 317.50Q247.85 320.31 247.85 323.48" fill="white" fill-opacity="0.9"/>
<path d="M271.56 334.84Q268.30 334.84 266.57 333.03Q264.84 331.22 264.84 328.12L264.84 311.16L267.72 311.16L267.72 328.12Q267.72 330.04 268.67 331.16Q269.61 332.28 271.56 332.28Q273.48 332.28 274.44 331.16Q275.40 330.04 275.40 328.12L275.40 311.16L278.28 311.16L278.28 328.12Q278.28 331.26 276.57 333.05Q274.86 334.84 271.56 334.84" fill="white" fill-opacity="0.9"/>
<path d="M286.83 334.52L284.04 334.52L284.04 311.16L287.88 311.16L295.02 331.16Q294.95 330.36 294.87 329.19Q294.79 328.02 294.75 326.73Q294.70 325.43 294.70 324.28L294.70 311.16L297.48 311.16L297.48 334.52L293.64 334.52L286.54 314.52Q286.60 315.29 286.67 316.46Q286.73 317.62 286.78 318.92Q286.83 320.22 286.83 321.40" fill="white" fill-opacity="0.9"/>
<path d="M316.20 334.52L303.72 334.52L303.72 331.90L308.49 331.90L308.49 313.78L303.72 313.78L303.72 311.16L316.20 311.16L316.20 313.78L311.43 313.78L311.43 331.90L316.20 331.90" fill="white" fill-opacity="0.9"/>
<path d="M330.60 334.52L327.72 334.52L327.72 313.78L321.32 313.78L321.32 311.16L337 311.16L337 313.78L330.60 313.78" fill="white" fill-opacity="0.9"/>
<path d="M349.80 334.52L346.92 334.52L346.92 325.78L339.88 311.16L342.95 311.16L347.50 320.76Q347.88 321.56 348.11 322.12Q348.33 322.68 348.39 322.94Q348.46 322.68 348.70 322.12Q348.94 321.56 349.32 320.76L353.87 311.16L356.84 311.16L349.80 325.78" fill="white" fill-opacity="0.9"/>
<path d="M382.83 334.52L380.04 334.52L380.04 311.16L383.88 311.16L391.02 331.16Q390.95 330.36 390.87 329.19Q390.79 328.02 390.75 326.73Q390.70 325.43 390.70 324.28L390.70 311.16L393.48 311.16L393.48 334.52L389.64 334.52L382.54 314.52Q382.60 315.29 382.67 316.46Q382.73 317.62 382.78 318.92Q382.83 320.22 382.83 321.40" fill="white" fill-opacity="0.9"/>
<path d="M405.96 334.84Q402.83 334.84 401 333.02Q399.18 331.19 399.18 327.80L399.18 317.88Q399.18 314.49 401 312.66Q402.83 310.84 405.96 310.84Q409.10 310.84 410.92 312.66Q412.75 314.49 412.75 317.85L412.75 327.80Q412.75 331.19 410.92 333.02Q409.10 334.84 405.96 334.84M405.96 332.25Q407.85 332.25 408.86 331.18Q409.87 330.10 409.87 328.12L409.87 317.56Q409.87 315.58 408.86 314.50Q407.85 313.43 405.96 313.43Q404.11 313.43 403.08 314.50Q402.06 315.58 402.06 317.56L402.06 328.12Q402.06 330.10 403.08 331.18Q404.11 332.25 405.96 332.25" fill="white" fill-opacity="0.9"/>
<path d="M424.55 334.52L418.51 334.52L418.51 311.16L424.55 311.16Q426.83 311.16 428.47 312.02Q430.12 312.89 431.03 314.46Q431.95 316.02 431.95 318.17L431.95 327.48Q431.95 329.62 431.03 331.21Q430.12 332.79 428.47 333.66Q426.83 334.52 424.55 334.52M421.39 313.72L421.39 331.96L424.55 331.96Q426.67 331.96 427.87 330.78Q429.07 329.59 429.07 327.48L429.07 318.17Q429.07 316.09 427.87 314.90Q426.67 313.72 424.55 313.72" fill="white" fill-opacity="0.9"/>
<path d="M451.40 334.52L437.96 334.52L437.96 311.16L451.40 311.16L451.40 313.78L440.81 313.78L440.81 321.02L450.28 321.02L450.28 323.58L440.81 323.58L440.81 331.90L451.40 331.90" fill="white" fill-opacity="0.9"/>
<path d="M463.69 334.84Q460.30 334.84 458.28 333.05Q456.27 331.26 456.27 328.12L459.15 328.12Q459.15 330.07 460.39 331.18Q461.64 332.28 463.69 332.28Q465.67 332.28 466.86 331.13Q468.04 329.98 468.04 328.12Q468.04 326.71 467.29 325.67Q466.54 324.63 465.13 324.25L461.58 323.26Q459.37 322.62 458.11 320.97Q456.84 319.32 456.84 317.08Q456.84 315.22 457.67 313.82Q458.51 312.41 460.01 311.62Q461.51 310.84 463.47 310.84Q465.45 310.84 466.97 311.62Q468.49 312.41 469.35 313.80Q470.22 315.19 470.22 317.02L467.34 317.02Q467.34 315.42 466.25 314.41Q465.16 313.40 463.47 313.40Q461.77 313.40 460.71 314.41Q459.66 315.42 459.66 317.02Q459.66 318.30 460.35 319.21Q461.03 320.12 462.28 320.47L465.93 321.50Q468.27 322.14 469.56 323.91Q470.86 325.69 470.86 328.12Q470.86 331.19 468.91 333.02Q466.95 334.84 463.69 334.84" fill="white" fill-opacity="0.9"/>
</g>
<path d="M74.37 197.64L72.21 197.64L72.21 180.12L77.85 180.12Q80.30 180.12 81.75 181.52Q83.20 182.93 83.20 185.28Q83.20 187.63 81.75 189.04Q80.30 190.44 77.85 190.44L74.37 190.44L74.37 197.64M74.37 182.06L74.37 188.50L77.85 188.50Q79.26 188.50 80.12 187.62Q80.97 186.74 80.97 185.28Q80.97 183.79 80.12 182.93Q79.26 182.06 77.85 182.06" fill="white" fill-opacity="0.7"/>
<path d="M90.45 197.88Q88.41 197.88 87.21 196.74Q86.01 195.60 86.01 193.75Q86.01 192.53 86.56 191.62Q87.11 190.70 88.10 190.19Q89.08 189.67 90.35 189.67L94.43 189.67L94.43 188.64Q94.43 186.07 91.62 186.07Q90.38 186.07 89.61 186.53Q88.84 186.98 88.79 187.80L86.63 187.80Q86.75 186.24 88.08 185.22Q89.42 184.20 91.62 184.20Q94.02 184.20 95.31 185.35Q96.59 186.50 96.59 188.57L96.59 197.64L94.46 197.64L94.46 195.24L94.41 195.24Q94.22 196.46 93.18 197.17Q92.15 197.88 90.45 197.88M90.98 196.06Q92.56 196.06 93.50 195.29Q94.43 194.52 94.43 193.20L94.43 191.35L90.59 191.35Q89.54 191.35 88.88 191.99Q88.22 192.62 88.22 193.68Q88.22 194.78 88.95 195.42Q89.68 196.06 90.98 196.06" fill="white" fill-opacity="0.7"/>
<path d="M106.53 197.83L105.47 197.83Q103.26 197.83 102.05 196.84Q100.84 195.84 100.84 194.02LNaN 194.02QNaN 194.93 103.65 195.44Q104.30 195.96 105.47 195.96L106.53 195.96Q107.73 195.96 108.39 195.43Q109.05 194.90 109.05 193.94Q109.05 192.24 107.49 192.02L103.84 191.50Q102.50 191.30 101.75 190.38Q101.01 189.46 101.01 187.94Q101.01 186.22 102.20 185.23Q103.38 184.25 105.47 184.25L106.53 184.25Q108.45 184.25 109.66 185.20Q110.87 186.14 110.97 187.68L108.78 187.68Q108.74 186.98 108.12 186.53Q107.51 186.07 106.53 186.07L105.47 186.07Q104.37 186.07 103.74 186.58Q103.12 187.08 103.12 187.94Q103.12 189.34 104.39 189.53L107.80 190.01Q111.16 190.49 111.16 193.94Q111.16 195.79 109.95 196.81Q108.74 197.83 106.53 197.83" fill="white" fill-opacity="0.7"/>
<path d="M120.93 197.83L119.87 197.83Q117.66 197.83 116.45 196.84Q115.24 195.84 115.24 194.02L117.40 194.02Q117.40 194.93 118.05 195.44Q118.70 195.96 119.87 195.96L120.93 195.96Q122.13 195.96 122.79 195.43Q123.45 194.90 123.45 193.94Q123.45 192.24 121.89 192.02L118.24 191.50Q116.90 191.30 116.15 190.38Q115.41 189.46 115.41 187.94Q115.41 186.22 116.60 185.23Q117.78 184.25 119.87 184.25L120.93 184.25Q122.85 184.25 124.06 185.20Q125.27 186.14 125.37 187.68L123.18 187.68Q123.14 186.98 122.52 186.53Q121.91 186.07 120.93 186.07L119.87 186.07Q118.77 186.07 118.14 186.58Q117.52 187.08 117.52 187.94Q117.52 189.34 118.79 189.53L122.20 190.01Q125.56 190.49 125.56 193.94Q125.56 195.79 124.35 196.81Q123.14 197.83 120.93 197.83" fill="white" fill-opacity="0.7"/>
<path d="M132.88 197.64L130.50 197.64L128.34 184.44L130.22 184.44L131.56 193.75Q131.63 194.28 131.70 194.92Q131.78 195.55 131.80 195.96Q131.85 195.55 131.91 194.92Q131.97 194.28 132.06 193.75L133.72 184.44L135.88 184.44L137.54 193.75Q137.63 194.28 137.72 194.92Q137.80 195.55 137.82 195.96Q137.87 195.55 137.94 194.92Q138.02 194.28 138.09 193.75L139.48 184.44L141.26 184.44LNaN 197.64L136.62 197.64L135.11 188.52Q135.02 187.85 134.93 187.09Q134.85 186.34 134.80 185.93Q134.78 186.34 134.68 187.09Q134.58 187.85 134.46 188.52" fill="white" fill-opacity="0.7"/>
<path d="M149.20 197.83Q146.82 197.83 145.42 196.44Q144.02 195.05 144.02 192.55L144.02 189.53Q144.02 187.01 145.41 185.63Q146.80 184.25 149.20 184.25Q151.60 184.25 152.99 185.63Q154.38 187.01 154.38 189.53L154.38 192.55Q154.38 195.05 152.98 196.44Q151.58 197.83 149.20 197.83M149.20 195.91Q150.62 195.91 151.42 195.12Q152.22 194.33 152.22 192.79L152.22 189.29Q152.22 187.75 151.42 186.96Q150.62 186.17 149.20 186.17Q147.81 186.17 146.99 186.96Q146.18 187.75 146.18 189.29L146.18 192.79Q146.18 194.33 146.99 195.12Q147.81 195.91 149.20 195.91" fill="white" fill-opacity="0.7"/>
<path d="M161.25 197.64L159.09 197.64L159.09 184.44L161.25 184.44L161.25 186.96L161.30 186.96Q161.46 185.69 162.38 184.94Q163.29 184.20 164.82 184.20Q166.89 184.20 168 185.44Q169.12 186.67 169.12 188.95L169.12 190.08L166.96 190.08L166.96 188.95Q166.96 186.07 164.15 186.07Q162.74 186.07 161.99 186.89Q161.25 187.70 161.25 189.24" fill="white" fill-opacity="0.7"/>
<path d="M177.23 197.88Q175.26 197.88 174.08 196.56Q172.89 195.24 172.89 192.98L172.89 189.12Q172.89 186.84 174.06 185.52Q175.24 184.20 177.23 184.20Q178.72 184.20 179.69 184.94Q180.66 185.69 180.86 186.96L180.88 186.96L180.83 183.96L180.83 180.12L182.99 180.12L182.99 197.64L180.83 197.64L180.83 195.12L180.81 195.12Q180.64 196.42 179.68 197.15Q178.72 197.88 177.23 197.88M177.95 196.01Q179.30 196.01 180.06 195.17Q180.83 194.33 180.83 192.84L180.83 189.24Q180.83 187.75 180.06 186.91Q179.30 186.07 177.95 186.07Q176.58 186.07 175.82 186.78Q175.05 187.49 175.05 189.12L175.05 192.96Q175.05 194.57 175.82 195.29Q176.58 196.01 177.95 196.01" fill="white" fill-opacity="0.7"/>
<path d="M198.40 197.64L194.32 197.64Q192.57 197.64 191.52 196.62Q190.48 195.60 190.48 193.92L190.48 182.09L185.92 182.09L185.92 180.12L192.64 180.12L192.64 193.92Q192.64 194.74 193.10 195.20Q193.55 195.67 194.32 195.67L198.40 195.67" fill="white" fill-opacity="0.7"/>
<path d="M206.80 197.88Q204.47 197.88 203.04 196.48Q201.62 195.07 201.62 192.60L201.62 189.48Q201.62 187.01 203.04 185.60Q204.47 184.20 206.80 184.20Q208.36 184.20 209.52 184.82Q210.69 185.45 211.34 186.58Q211.98 187.70 211.98 189.24L211.98 191.59L203.73 191.59L203.73 192.84Q203.73 194.30 204.57 195.16Q205.41 196.01 206.80 196.01QNaN 196.01 208.78 195.54Q209.56 195.07 209.73 194.28L211.89 194.28Q211.67 195.94 210.28 196.91Q208.89 197.88 206.80 197.88M203.73 189.24L203.73 189.91L209.87 189.91L209.87 189.24Q209.87 187.68 209.07 186.83Q208.26 185.98 206.80 185.98Q205.34 185.98 204.53 186.83Q203.73 187.68 203.73 189.24" fill="white" fill-opacity="0.7"/>
<path d="M221.73 197.83L220.67 197.83Q218.46 197.83 217.25 196.84Q216.04 195.84 216.04 194.02L218.20 194.02Q218.20 194.93 218.85 195.44Q219.50 195.96 220.67 195.96L221.73 195.96Q222.93 195.96 223.59 195.43Q224.25 194.90 224.25 193.94Q224.25 192.24 222.69 192.02L219.04 191.50Q217.70 191.30 216.95 190.38Q216.21 189.46 216.21 187.94Q216.21 186.22 217.40 185.23Q218.58 184.25 220.67 184.25L221.73 184.25Q223.65 184.25 224.86 185.20Q226.07 186.14 226.17 187.68L223.98 187.68Q223.94 186.98 223.32 186.53Q222.71 186.07 221.73 186.07L220.67 186.07Q219.57 186.07 218.94 186.58Q218.32 187.08 218.32 187.94Q218.32 189.34 219.59 189.53LNaN 190.01Q226.36 190.49 226.36 193.94Q226.36 195.79 225.15 196.81Q223.94 197.83 221.73 197.83" fill="white" fill-opacity="0.7"/>
<path d="M236.13 197.83L235.07 197.83Q232.86 197.83 231.65 196.84Q230.44 195.84 230.44 194.02L232.60 194.02Q232.60 194.93 233.25 195.44Q233.90 195.96 235.07 195.96L236.13 195.96Q237.33 195.96 237.99 195.43Q238.65 194.90 238.65 193.94Q238.65 192.24 237.09 192.02L233.44 191.50Q232.10 191.30 231.35 190.38Q230.61 189.46 230.61 187.94Q230.61 186.22 231.80 185.23Q232.98 184.25 235.07 184.25L236.13 184.25Q238.05 184.25 239.26 185.20Q240.47 186.14 240.57 187.68L238.38 187.68Q238.34 186.98 237.72 186.53Q237.11 186.07 236.13 186.07L235.07 186.07Q233.97 186.07 233.34 186.58Q232.72 187.08 232.72 187.94Q232.72 189.34 233.99 189.53L237.40 190.01Q240.76 190.49 240.76 193.94Q240.76 195.79 239.55 196.81Q238.34 197.83 236.13 197.83" fill="white" fill-opacity="0.7"/>
<path d="M264.93 197.83L263.87 197.83Q261.66 197.83 260.45 196.84Q259.24 195.84 259.24 194.02L261.40 194.02Q261.40 194.93 262.05 195.44Q262.70 195.96 263.87 195.96L264.93 195.96Q266.13 195.96 266.79 195.43Q267.45 194.90 267.45 193.94Q267.45 192.24 265.89 192.02L262.24 191.50Q260.90 191.30 260.15 190.38Q259.41 189.46 259.41 187.94Q259.41 186.22 260.60 185.23Q261.78 184.25 263.87 184.25L264.93 184.25Q266.85 184.25 268.06 185.20Q269.27 186.14 269.37 187.68L267.18 187.68Q267.14 186.98 266.52 186.53Q265.91 186.07 264.93 186.07L263.87 186.07Q262.77 186.07 262.14 186.58Q261.52 187.08 261.52 187.94Q261.52 189.34 262.79 189.53L266.20 190.01Q269.56 190.49 269.56 193.94Q269.56 195.79 268.35 196.81Q267.14 197.83 264.93 197.83" fill="white" fill-opacity="0.7"/>
<path d="M283.96 197.64L280.12 197.64Q278.49 197.64 277.50 196.69Q276.52 195.74 276.52 194.16L276.52 186.41L272.73 186.41L272.73 184.44L276.52 184.44L276.52 180.72L278.68 180.72L278.68 184.44L284.08 184.44L284.08 186.41L278.68 186.41L278.68 194.16Q278.68 194.83 279.08 195.25Q279.47 195.67 280.12 195.67L283.96 195.67" fill="white" fill-opacity="0.7"/>
<path d="M290.85 197.64L288.69 197.64L288.69 184.44L290.85 184.44L290.85 186.96L290.90 186.96Q291.06 185.69 291.98 184.94Q292.89 184.20 294.42 184.20Q296.49 184.20 297.60 185.44Q298.72 186.67 298.72 188.95L298.72 190.08L296.56 190.08L296.56 188.95Q296.56 186.07 293.75 186.07Q292.34 186.07 291.59 186.89Q290.85 187.70 290.85 189.24" fill="white" fill-opacity="0.7"/>
<path d="M307.60 197.83Q305.22 197.83 303.82 196.44Q302.42 195.05 302.42 192.55L302.42 189.53Q302.42 187.01 303.81 185.63Q305.20 184.25 307.60 184.25Q310 184.25 311.39 185.63Q312.78 187.01 312.78 189.53L312.78 192.55Q312.78 195.05 311.38 196.44Q309.98 197.83 307.60 197.83M307.60 195.91Q309.02 195.91 309.82 195.12Q310.62 194.33 310.62 192.79L310.62 189.29Q310.62 187.75 309.82 186.96Q309.02 186.17 307.60 186.17Q306.21 186.17 305.39 186.96Q304.58 187.75 304.58 189.29L304.58 192.79Q304.58 194.33 305.39 195.12Q306.21 195.91 307.60 195.91" fill="white" fill-opacity="0.7"/>
<path d="M319.17 197.64L317.01 197.64L317.01 184.44L319.17 184.44L319.17 186.96L319.19 186.96Q319.36 185.64 320.27 184.92Q321.18 184.20 322.70 184.20Q324.69 184.20 325.86 185.42Q327.04 186.65 327.04 188.76L327.04 197.64L324.88 197.64L324.88 189.14Q324.88 187.63 324.12 186.83Q323.37 186.02 322.07 186.02Q320.73 186.02 319.95 186.86Q319.17 187.70 319.17 189.24" fill="white" fill-opacity="0.7"/>
<path d="M336.76 201.96L333.06 201.96L333.06 199.99L336.78 199.99Q337.91 199.99 338.56 199.36Q339.21 198.72 339.21 197.64L339.21 196.44L339.26 194.28L339.18 194.28Q338.99 195.46 338.06 196.09Q337.12 196.73 335.70 196.73Q333.66 196.73 332.49 195.43Q331.31 194.14 331.31 191.88L331.31 189.10Q331.31 186.84 332.49 185.52Q333.66 184.20 335.70 184.20Q337.12 184.20 338.06 184.87Q338.99 185.54 339.18 186.72L339.23 186.72L339.23 184.44L341.37 184.44L341.37 197.64Q341.37 199.63 340.13 200.80Q338.90 201.96 336.76 201.96M336.35 194.93Q337.70 194.93 338.46 194.09Q339.23 193.25 339.23 191.76L339.23 189.24Q339.23 187.75 338.46 186.91Q337.70 186.07 336.35 186.07Q334.98 186.07 334.23 186.86Q333.47 187.66 333.47 189L333.47 192Q333.47 193.34 334.23 194.14Q334.98 194.93 336.35 194.93" fill="white" fill-opacity="0.7"/>
<path d="M364.05 197.88Q362.01 197.88 360.81 196.74Q359.61 195.60 359.61 193.75Q359.61 192.53 360.16 191.62Q360.71 190.70 361.70 190.19Q362.68 189.67 363.95 189.67L368.03 189.67L368.03 188.64Q368.03 186.07 365.22 186.07Q363.98 186.07 363.21 186.53Q362.44 186.98 362.39 187.80L360.23 187.80Q360.35 186.24 361.68 185.22Q363.02 184.20 365.22 184.20Q367.62 184.20 368.91 185.35Q370.19 186.50 370.19 188.57L370.19 197.64L368.06 197.64L368.06 195.24L368.01 195.24Q367.82 196.46 366.78 197.17Q365.75 197.88 364.05 197.88M364.58 196.06Q366.16 196.06 367.10 195.29Q368.03 194.52 368.03 193.20L368.03 191.35L364.19 191.35Q363.14 191.35 362.48 191.99Q361.82 192.62 361.82 193.68Q361.82 194.78 362.55 195.42Q363.28 196.06 364.58 196.06" fill="white" fill-opacity="0.7"/>
<path d="M379.58 197.88Q377.30 197.88 375.93 196.52Q374.56 195.17 374.56 192.84L374.56 184.44L376.72 184.44L376.72 192.84Q376.72 194.28 377.49 195.13Q378.26 195.98 379.58 195.98Q380.92 195.98 381.70 195.13Q382.48 194.28 382.48 192.84L382.48 184.44L384.64 184.44L384.64 192.84Q384.64 195.17 383.25 196.52Q381.86 197.88 379.58 197.88" fill="white" fill-opacity="0.7"/>
<path d="M399.16 197.64L395.32 197.64Q393.69 197.64 392.70 196.69Q391.72 195.74 391.72 194.16L391.72 186.41L387.93 186.41L387.93 184.44L391.72 184.44L391.72 180.72L393.88 180.72L393.88 184.44L399.28 184.44L399.28 186.41L393.88 186.41L393.88 194.16Q393.88 194.83 394.28 195.25Q394.67 195.67 395.32 195.67L399.16 195.67" fill="white" fill-opacity="0.7"/>
<path d="M405.57 197.64L403.41 197.64L403.41 180.12L405.57 180.12L405.57 186.96L405.59 186.96Q405.76 185.64 406.67 184.92Q407.58 184.20 409.10 184.20Q411.09 184.20 412.26 185.42Q413.44 186.65 413.44 188.76L413.44 197.64L411.28 197.64L411.28 189.12Q411.28 187.63 410.52 186.83Q409.77 186.02 408.47 186.02Q407.13 186.02 406.35 186.86Q405.57 187.70 405.57 189.24" fill="white" fill-opacity="0.7"/>
<path d="M422.80 197.88Q420.47 197.88 419.04 196.48Q417.62 195.07 417.62 192.60L417.62 189.48Q417.62 187.01 419.04 185.60Q420.47 184.20 422.80 184.20Q424.36 184.20 425.52 184.82Q426.69 185.45 427.34 186.58Q427.98 187.70 427.98 189.24L427.98 191.59L419.73 191.59L419.73 192.84Q419.73 194.30 420.57 195.16Q421.41 196.01 422.80 196.01Q424 196.01 424.78 195.54Q425.56 195.07 425.73 194.28L427.89 194.28Q427.67 195.94 426.28 196.91Q424.89 197.88 422.80 197.88M419.73 189.24L419.73 189.91L425.87 189.91L425.87 189.24Q425.87 187.68 425.07 186.83Q424.26 185.98 422.80 185.98Q421.34 185.98 420.53 186.83Q419.73 187.68 419.73 189.24" fill="white" fill-opacity="0.7"/>
<path d="M434.37 197.64L432.21 197.64L432.21 184.44L434.37 184.44L434.37 186.96L434.39 186.96Q434.56 185.64 435.47 184.92Q436.38 184.20 437.90 184.20Q439.89 184.20 441.06 185.42Q442.24 186.65 442.24 188.76L442.24 197.64L440.08 197.64L440.08 189.14Q440.08 187.63 439.32 186.83Q438.57 186.02 437.27 186.02Q435.93 186.02 435.15 186.86Q434.37 187.70 434.37 189.24" fill="white" fill-opacity="0.7"/>
<path d="M456.76 197.64L452.92 197.64Q451.29 197.64 450.30 196.69Q449.32 195.74 449.32 194.16L449.32 186.41L445.53 186.41L445.53 184.44L449.32 184.44L449.32 180.72L451.48 180.72L451.48 184.44L456.88 184.44L456.88 186.41L451.48 186.41L451.48 194.16Q451.48 194.83 451.88 195.25Q452.27 195.67 452.92 195.67L456.76 195.67" fill="white" fill-opacity="0.7"/>
<path d="M472.12 197.64L460.84 197.64L460.84 195.67L465.52 195.67L465.52 186.41L461.32 186.41L461.32 184.44L467.68 184.44L467.68 195.67L472.12 195.67L472.12 197.64M466.36 182.06Q465.57 182.06 465.11 181.66Q464.66 181.25 464.66 180.55Q464.66 179.83 465.11 179.41Q465.57 178.99 466.36 178.99Q467.15 178.99 467.61 179.41Q468.06 179.83 468.06 180.55Q468.06 181.25 467.61 181.66Q467.15 182.06 466.36 182.06" fill="white" fill-opacity="0.7"/>
<path d="M480.59 197.88Q478.19 197.88 476.75 196.54Q475.31 195.19 475.31 192.84L475.31 189.24Q475.31 186.89 476.75 185.54Q478.19 184.20 480.59 184.20Q482.87 184.20 484.28 185.42Q485.68 186.65 485.75 188.76L483.59 188.76Q483.52 187.49 482.73 186.80Q481.94 186.12 480.59 186.12Q479.18 186.12 478.32 186.92Q477.47 187.73 477.47 189.22L477.47 192.84Q477.47 194.33 478.32 195.14Q479.18 195.96 480.59 195.96Q481.94 195.96 482.73 195.26Q483.52 194.57 483.59 193.32L485.75 193.32Q485.68 195.43 484.28 196.66Q482.87 197.88 480.59 197.88" fill="white" fill-opacity="0.7"/>
<path d="M493.65 197.88Q491.61 197.88 490.41 196.74Q489.21 195.60 489.21 193.75Q489.21 192.53 489.76 191.62Q490.31 190.70 491.30 190.19Q492.28 189.67 493.55 189.67L497.63 189.67L497.63 188.64Q497.63 186.07 494.82 186.07Q493.58 186.07 492.81 186.53Q492.04 186.98 491.99 187.80L489.83 187.80Q489.95 186.24 491.28 185.22Q492.62 184.20 494.82 184.20Q497.22 184.20 498.51 185.35Q499.79 186.50 499.79 188.57L499.79 197.64L497.66 197.64L497.66 195.24L497.61 195.24Q497.42 196.46 496.38 197.17Q495.35 197.88 493.65 197.88M494.18 196.06Q495.76 196.06 496.70 195.29Q497.63 194.52 497.63 193.20L497.63 191.35L493.79 191.35Q492.74 191.35 492.08 191.99Q491.42 192.62 491.42 193.68Q491.42 194.78 492.15 195.42Q492.88 196.06 494.18 196.06" fill="white" fill-opacity="0.7"/>
<path d="M514.36 197.64L510.52 197.64Q508.89 197.64 507.90 196.69Q506.92 195.74 506.92 194.16L506.92 186.41L503.13 186.41L503.13 184.44L506.92 184.44L506.92 180.72L509.08 180.72L509.08 184.44L514.48 184.44L514.48 186.41L509.08 186.41L509.08 194.16Q509.08 194.83 509.48 195.25Q509.87 195.67 510.52 195.67L514.36 195.67" fill="white" fill-opacity="0.7"/>
<path d="M529.72 197.64L518.44 197.64L518.44 195.67L523.12 195.67L523.12 186.41L518.92 186.41L518.92 184.44L525.28 184.44L525.28 195.67L529.72 195.67L529.72 197.64M523.96 182.06Q523.17 182.06 522.71 181.66Q522.26 181.25 522.26 180.55Q522.26 179.83 522.71 179.41Q523.17 178.99 523.96 178.99Q524.75 178.99 525.21 179.41Q525.66 179.83 525.66 180.55Q525.66 181.25 525.21 181.66Q524.75 182.06 523.96 182.06" fill="white" fill-opacity="0.7"/>
<path d="M538 197.83Q535.62 197.83 534.22 196.44Q532.82 195.05 532.82 192.55L532.82 189.53Q532.82 187.01 534.21 185.63Q535.60 184.25 538 184.25Q540.40 184.25 541.79 185.63Q543.18 187.01 543.18 189.53L543.18 192.55Q543.18 195.05 541.78 196.44Q540.38 197.83 538 197.83M538 195.91Q539.42 195.91 540.22 195.12Q541.02 194.33 541.02 192.79L541.02 189.29Q541.02 187.75 540.22 186.96Q539.42 186.17 538 186.17Q536.61 186.17 535.79 186.96Q534.98 187.75 534.98 189.29L534.98 192.79Q534.98 194.33 535.79 195.12Q536.61 195.91 538 195.91" fill="white" fill-opacity="0.7"/>
<path d="M549.57 197.64L547.41 197.64L547.41 184.44L549.57 184.44L549.57 186.96L549.59 186.96Q549.76 185.64 550.67 184.92Q551.58 184.20 553.10 184.20Q555.09 184.20 556.26 185.42Q557.44 186.65 557.44 188.76L557.44 197.64L555.28 197.64L555.28 189.14Q555.28 187.63 554.52 186.83Q553.77 186.02 552.47 186.02Q551.13 186.02 550.35 186.86Q549.57 187.70 549.57 189.24" fill="white" fill-opacity="0.7"/>
<path d="M566.80 197.88Q565.91 197.88 565.37 197.35Q564.83 196.82 564.83 195.98Q564.83 195.10 565.37 194.54Q565.91 193.99 566.80 193.99Q567.69 193.99 568.23 194.54Q568.77 195.10 568.77 195.98Q568.77 196.82 568.23 197.35Q567.69 197.88 566.80 197.88" fill="white" fill-opacity="0.7"/>
<path d="M76.11 136.06L66.42 136.06L84.56 65.98L97.14 65.98L115.18 136.06L105.49 136.06L101.07 117.82L80.53 117.82L76.11 136.06M87.54 88.92L82.45 109.95L99.15 109.95L94.16 89.02Q92.72 83.26 91.86 79.23Q90.99 75.20 90.80 73.76Q90.61 75.20 89.74 79.23Q88.88 83.26 87.54 88.92M148.40 137.02Q138.51 137.02 133.18 131.55Q127.86 126.08 127.86 116.67L127.86 65.98L137.36 65.98L137.36 116.67Q137.36 122.24 140.10 125.40Q142.83 128.57 148.40 128.57Q153.87 128.57 156.70 125.40Q159.54 122.24 159.54 116.67L159.54 65.98L169.04 65.98L169.04 116.67Q169.04 126.17 163.71 131.60Q158.38 137.02 148.40 137.02M210.80 136.06L201.30 136.06L201.30 74.62L182.29 74.62L182.29 65.98L229.71 65.98L229.71 74.62L210.80 74.62L210.80 136.06M252.85 136.06L243.34 136.06L243.34 65.98L252.85 65.98L252.85 95.55L274.35 95.55L274.35 65.98L283.86 65.98L283.86 136.06L274.35 136.06L274.35 104.19L252.85 104.19L252.85 136.06M342.51 136.06L301.71 136.06L301.71 65.98L342.51 65.98L342.51 74.52L311.12 74.52L311.12 95.36L339.15 95.36L339.15 103.61L311.12 103.61L311.12 127.52L342.51 127.52L342.51 136.06M367.18 136.06L358.26 136.06L358.26 65.98L370.54 65.98L391.47 125.12Q391.18 122.62 390.94 118.92Q390.70 115.23 390.56 111.24Q390.42 107.26 390.42 103.71L390.42 65.98L399.44 65.98L399.44 136.06L387.06 136.06L366.32 76.92Q366.51 79.42 366.70 83.02Q366.90 86.62 367.04 90.56Q367.18 94.49 367.18 97.95L367.18 136.06M441.20 136.06L431.70 136.06L431.70 74.62L412.69 74.62L412.69 65.98L460.11 65.98L460.11 74.62L441.20 74.62L441.20 136.06M513.10 136.06L474.90 136.06L474.90 127.42L489.20 127.42L489.20 74.62L474.90 74.62L474.90 65.98L513.10 65.98L513.10 74.62L498.80 74.62L498.80 127.42L513.10 127.42L513.10 136.06M573.78 153.34L563.02 153.34L553.04 136.92Q552.75 137.02 552.37 137.02Q551.98 137.02 551.60 137.02Q541.81 137.02 NaN 131.36Q530.19 125.69 530.19 116.28L530.19 85.76Q530.19 76.25 NaN 70.64Q541.81 65.02 551.60 65.02Q561.39 65.02 567.20 70.64Q573.01 76.25 573.01 85.76L573.01 116.28Q573.01 122.72 570.22 127.52Q567.44 132.32 562.45 134.72L573.78 153.34M551.60 128.57Q557.07 128.57 560.29 125.26Q563.50 121.95 563.50 116.28L563.50 85.76Q563.50 80.09 560.29 76.73Q557.07 73.37 551.60 73.37Q546.13 73.37 542.91 76.73Q539.70 80.09 539.70 85.76L539.70 116.28Q539.70 121.95 542.91 125.26Q546.13 128.57 551.60 128.57M628.30 136.06L590.10 136.06L590.10 127.42L604.40 127.42L604.40 74.62L590.10 74.62L590.10 65.98L628.30 65.98L628.30 74.62LNaN 74.62LNaN 127.42L628.30 127.42L628.30 136.06M666.80 137.02Q657.20 137.02 651.63 131.45Q646.06 125.88 646.06 115.71L646.06 86.24Q646.06 76.16 651.63 70.59Q657.20 65.02 666.80 65.02Q676.40 65.02 681.97 70.54Q687.54 76.06 687.54 86.24L687.54 115.71Q687.54 125.88 681.97 131.45Q676.40 137.02 666.80 137.02M666.80 128.57Q672.18 128.57 675.10 125.50Q678.03 122.43 678.03 116.67L678.03 85.28Q678.03 79.61 675.15 76.54Q672.27 73.47 666.80 73.47Q661.33 73.47 658.45 76.54Q655.57 79.61 655.57 85.28L655.57 116.67Q655.57 122.43 658.50 125.50Q661.42 128.57 666.80 128.57" fill="url(#paint2_linear_0_1)"/>
<g id="Group 1">
<rect id="Rectangle 1" x="26" y="168" width="12" height="184" rx="5" fill="url(#paint3_linear_0_1)" fill-opacity="0.9"/>
</g>
<g id="Group 1_2">
<rect id="Rectangle 2" x="26" y="38" width="12" height="119" rx="5" fill="url(#paint4_linear_0_1)" fill-opacity="0.9"/>
</g>
<ellipse id="Ellipse 1" cx="148.5" cy="573" rx="215.5" ry="214" fill="url(#paint5_linear_0_1)" fill-opacity="0.4"/>
<rect id="Rectangle 3" x="1229" y="48" width="300" height="300" rx="25" fill="#FFFBFB" fill-opacity="0.9"/>
<g id="placeholder-logo"><g transform="translate(1229,48) translate(0.0,15.0) scale(3.0000)"><g id="logo">		<path d="M 100 61.3837 L 100 28.6168 C 100 26.4381 98.7496 23.9664 97.2213 23.124 L 53.9407 1.5062 C 50.0811 -0.5648 48.8573 -0.3295 45 1.6474 L 2.7776 23.1202 C 1.2498 23.9649 0 26.4381 0 28.6168 L 0 61.3837 C 0 63.5621 1.2498 66.0362 2.7776 66.8805 L 45.0187 88.3636 C 49.5222 90.8828 50.5576 90.0546 54.0258 88.4844 L 97.2213 66.877 C 98.7496 66.0341 100 63.5621 100 61.3837 Z" fill="#ffffff"/>		<path d="M 37.476 45.4665 C 37.476 39.7905 41.8408 35.1892 47.2256 35.1892 C 52.6104 35.1892 56.975 39.7905 56.975 45.4665 C 56.975 51.1425 52.6104 55.7438 47.2256 55.7438 C 41.8408 55.7438 37.476 51.1425 37.476 45.4665 ZM 74 54.6389 C 73.4625 54.7764 72.9307 54.9231 72.3655 54.9231 C 71.2145 54.9231 70.9222 54.6184 70.1405 53.9962 C 69.3803 53.3755 69 52.5118 69 51.3951 L 69 26 L 57 26 L 57 30.3172 C 55.4522 28.5475 53.6607 27.9727 51.6463 27.1527 C 49.6266 26.3416 47.4072 25.9305 45.0506 25.9305 C 42.2166 25.9305 39.6651 26.4561 37.3739 27.4996 C 35.0877 28.542 33.1391 29.9475 31.5099 31.7069 C 29.9029 33.4755 28.6539 35.5304 27.7746 37.8787 C 26.9061 40.2314 26.4715 42.7125 26.4715 45.3287 C 26.4715 48.0045 26.9061 50.521 27.7746 52.8704 C 28.6539 55.2187 29.9029 57.2768 31.5099 59.0409 C 33.1391 60.7991 35.0877 62.2058 37.3739 63.2539 C 39.6651 64.2962 42.2166 64.8174 45.0506 64.8174 C 47.8142 64.8174 50.3062 64.2858 52.5326 63.2069 C 54.7476 62.1211 56.5988 60.4418 58.0811 58.1566 C 59.0258 60.1153 60.3559 61.7156 62.0666 62.9594 C 63.7875 64.2011 65.7588 64.8174 67.9842 64.8174 C 69.5267 64.8174 70.9215 64.6387 72.4689 64.2858 C 73.0387 64.1484 73.4732 63.7796 74 63.5746 L 74 54.6389 Z" fill="#F05023"/>	</g></g></g>
</g>
<defs>
<linearGradient id="paint0_linear_0_1" x1="0" y1="198" x2="1584" y2="198" gradientUnits="userSpaceOnUse">
<stop stop-color="#3D052C"/>
<stop offset="1"/>
</linearGradient>
<linearGradient id="paint1_linear_0_1" x1="323" y1="-224" x2="323" y2="352" gradientUnits="userSpaceOnUse">
<stop stop-color="#28F6F2" stop-opacity="0.4"/>
<stop offset="1" stop-color="#17908E" stop-opacity="0.7"/>
</linearGradient>
<linearGradient id="paint2_linear_0_1" x1="148.5" y1="38" x2="148.5" y2="140" gradientUnits="userSpaceOnUse">
<stop stop-color="white"/>
<stop offset="1" stop-color="#999999"/>
</linearGradient>
<linearGradient id="paint3_linear_0_1" x1="38" y1="260" x2="26" y2="260" gradientUnits="userSpaceOnUse">
<stop stop-color="#D9D9D9"/>
<stop offset="1" stop-color="#737373"/>
</linearGradient>
<linearGradient id="paint4_linear_0_1" x1="38" y1="97.5" x2="26" y2="97.5" gradientUnits="userSpaceOnUse">
<stop stop-color="#D9D9D9"/>
<stop offset="1" stop-color="#737373"/>
</linearGradient>
<linearGradient id="paint5_linear_0_1" x1="27.5" y1="434.5" x2="148.5" y2="787" gradientUnits="userSpaceOnUse">
<stop stop-color="#2E21BC"/>
<stop offset="1" stop-color="#150F56"/>
</linearGradient>
<clipPath id="clip0_0_1">
<rect width="1584" height="396" fill="white"/>
</clipPath>
</defs>
</svg>
